<?xml version="1.0" standalone="no"?><!DOCTYPE svg PUBLIC "-//W3C//DTD SVG 1.1//EN" "http://www.w3.org/Graphics/SVG/1.1/DTD/svg11.dtd"><svg class="icon" width="200px" height="200.00px" viewBox="0 0 1024 1024" version="1.1" xmlns="http://www.w3.org/2000/svg"><path d="M175.478 867.516l-0.336-673.34h112.511v37.017c0 41.427 33.462 75.158 74.634 75.158h299.428c41.347-0.188 74.736-33.811 74.632-75.158v-37.017l112.175-0.302 0.297 673.346-673.341 0.296z m486.088-710.358l0.149 74.404-299.28-0.37v-74.035l-0.148-0.377 299.279 0.378z m186.767-37.764H725.877C712.944 97.142 689.164 82 661.715 82H362.287c-27.443 0-51.19 15.108-64.164 37.394H175.142c-41.114 0.039-74.422 33.364-74.445 74.479v673.643c0 41.056 33.429 74.484 74.484 74.484h673.637c41.114-0.063 74.422-33.378 74.484-74.484V193.873c-0.164-41.256-33.713-74.588-74.969-74.479zM637.112 433.815L459.803 627.652l-72.578-81.326c-13.75-15.409-37.388-16.744-52.793-2.994-15.409 13.756-16.746 37.393-2.994 52.798l100.135 112.175a37.398 37.398 0 0 0 27.667 12.49h0.228c10.47 0 20.488-4.417 27.591-12.154l205.243-224.349c13.938-15.24 12.882-38.894-2.356-52.833-15.241-13.938-38.895-12.882-52.834 2.356" fill="#ffffff" /></svg>